<mxfile host="app.diagrams.net" modified="2024-04-15T09:21:44.342Z" agent="Mozilla/5.0 (Windows NT 10.0; Win64; x64) AppleWebKit/537.36 (KHTML, like Gecko) Chrome/123.0.0.0 Safari/537.36" etag="XRh3xLmy_m95L9Jw-TIM" version="24.2.5" type="github">
  <diagram id="C5RBs43oDa-KdzZeNtuy" name="Page-1">
    <mxGraphModel dx="1761" dy="494" grid="0" gridSize="10" guides="1" tooltips="1" connect="1" arrows="1" fold="1" page="1" pageScale="1" pageWidth="827" pageHeight="1169" background="none" math="0" shadow="0">
      <root>
        <mxCell id="WIyWlLk6GJQsqaUBKTNV-0" />
        <mxCell id="WIyWlLk6GJQsqaUBKTNV-1" parent="WIyWlLk6GJQsqaUBKTNV-0" />
        <mxCell id="WIyWlLk6GJQsqaUBKTNV-2" value="" style="rounded=0;html=1;jettySize=auto;orthogonalLoop=1;fontSize=11;endArrow=block;endFill=0;endSize=8;strokeWidth=1;shadow=0;labelBackgroundColor=none;edgeStyle=orthogonalEdgeStyle;" parent="WIyWlLk6GJQsqaUBKTNV-1" source="WIyWlLk6GJQsqaUBKTNV-3" target="WIyWlLk6GJQsqaUBKTNV-6" edge="1">
          <mxGeometry relative="1" as="geometry" />
        </mxCell>
        <mxCell id="WIyWlLk6GJQsqaUBKTNV-3" value="&lt;p class=&quot;MsoNormal&quot;&gt;&lt;span style=&quot;font-family: 宋体; font-size: 12pt;&quot;&gt;查询同一炉台同一炉次的所有棒次记录&lt;/span&gt;&lt;/p&gt;" style="rounded=1;whiteSpace=wrap;html=1;fontSize=12;glass=0;strokeWidth=1;shadow=0;" parent="WIyWlLk6GJQsqaUBKTNV-1" vertex="1">
          <mxGeometry x="92.25" y="70" width="255.5" height="40" as="geometry" />
        </mxCell>
        <mxCell id="WIyWlLk6GJQsqaUBKTNV-4" value="Yes" style="rounded=0;html=1;jettySize=auto;orthogonalLoop=1;fontSize=11;endArrow=block;endFill=0;endSize=8;strokeWidth=1;shadow=0;labelBackgroundColor=none;edgeStyle=orthogonalEdgeStyle;" parent="WIyWlLk6GJQsqaUBKTNV-1" source="WIyWlLk6GJQsqaUBKTNV-6" edge="1">
          <mxGeometry y="20" relative="1" as="geometry">
            <mxPoint as="offset" />
            <mxPoint x="220" y="315" as="targetPoint" />
          </mxGeometry>
        </mxCell>
        <mxCell id="WIyWlLk6GJQsqaUBKTNV-6" value="判断是否存在记录" style="rhombus;whiteSpace=wrap;html=1;shadow=0;fontFamily=Helvetica;fontSize=12;align=center;strokeWidth=1;spacing=6;spacingTop=-4;" parent="WIyWlLk6GJQsqaUBKTNV-1" vertex="1">
          <mxGeometry x="170" y="170" width="100" height="80" as="geometry" />
        </mxCell>
        <mxCell id="WIyWlLk6GJQsqaUBKTNV-8" value="Yes" style="rounded=0;html=1;jettySize=auto;orthogonalLoop=1;fontSize=11;endArrow=block;endFill=0;endSize=8;strokeWidth=1;shadow=0;labelBackgroundColor=none;edgeStyle=orthogonalEdgeStyle;" parent="WIyWlLk6GJQsqaUBKTNV-1" target="WIyWlLk6GJQsqaUBKTNV-11" edge="1">
          <mxGeometry x="0.3333" y="20" relative="1" as="geometry">
            <mxPoint as="offset" />
            <mxPoint x="219" y="470" as="sourcePoint" />
          </mxGeometry>
        </mxCell>
        <mxCell id="afuocbFBIYYZ1BMzaNP9-22" style="edgeStyle=orthogonalEdgeStyle;rounded=0;orthogonalLoop=1;jettySize=auto;html=1;exitX=0.5;exitY=1;exitDx=0;exitDy=0;entryX=0.5;entryY=0;entryDx=0;entryDy=0;" edge="1" parent="WIyWlLk6GJQsqaUBKTNV-1" source="WIyWlLk6GJQsqaUBKTNV-11" target="afuocbFBIYYZ1BMzaNP9-16">
          <mxGeometry relative="1" as="geometry" />
        </mxCell>
        <mxCell id="WIyWlLk6GJQsqaUBKTNV-11" value="&lt;p class=&quot;MsoNormal&quot;&gt;&lt;span style=&quot;font-family: 宋体; font-size: 12pt;&quot;&gt;挑选出进入等径阶段的棒次&lt;/span&gt;&lt;/p&gt;" style="rounded=1;whiteSpace=wrap;html=1;fontSize=12;glass=0;strokeWidth=1;shadow=0;" parent="WIyWlLk6GJQsqaUBKTNV-1" vertex="1">
          <mxGeometry x="119" y="512" width="202" height="40" as="geometry" />
        </mxCell>
        <mxCell id="afuocbFBIYYZ1BMzaNP9-2" style="edgeStyle=orthogonalEdgeStyle;rounded=0;orthogonalLoop=1;jettySize=auto;html=1;exitX=1;exitY=0.5;exitDx=0;exitDy=0;entryX=0;entryY=0.5;entryDx=0;entryDy=0;" edge="1" parent="WIyWlLk6GJQsqaUBKTNV-1" source="afuocbFBIYYZ1BMzaNP9-0" target="afuocbFBIYYZ1BMzaNP9-1">
          <mxGeometry relative="1" as="geometry" />
        </mxCell>
        <mxCell id="afuocbFBIYYZ1BMzaNP9-1" value="&lt;p style=&quot;&quot; class=&quot;MsoNormal&quot;&gt;&lt;span style=&quot;font-family: 宋体; font-size: 12pt;&quot;&gt;结合同一炉台上一炉次剩余料量接近的调温成功样本给出新开炉第一棒次的引晶功率&lt;/span&gt;&lt;span style=&quot;font-family: 宋体; font-size: 12pt;&quot;&gt;&lt;/span&gt;&lt;/p&gt;" style="rounded=1;whiteSpace=wrap;html=1;fontSize=12;glass=0;strokeWidth=1;shadow=0;" vertex="1" parent="WIyWlLk6GJQsqaUBKTNV-1">
          <mxGeometry x="484" y="173.5" width="309" height="73" as="geometry" />
        </mxCell>
        <mxCell id="afuocbFBIYYZ1BMzaNP9-3" value="" style="edgeStyle=orthogonalEdgeStyle;rounded=0;html=1;jettySize=auto;orthogonalLoop=1;fontSize=11;endArrow=block;endFill=0;endSize=8;strokeWidth=1;shadow=0;labelBackgroundColor=none;" edge="1" parent="WIyWlLk6GJQsqaUBKTNV-1" source="WIyWlLk6GJQsqaUBKTNV-6" target="afuocbFBIYYZ1BMzaNP9-0">
          <mxGeometry y="10" relative="1" as="geometry">
            <mxPoint as="offset" />
            <mxPoint x="270" y="210" as="sourcePoint" />
            <mxPoint x="387" y="210" as="targetPoint" />
          </mxGeometry>
        </mxCell>
        <mxCell id="afuocbFBIYYZ1BMzaNP9-0" value="&lt;span style=&quot;font-family: 宋体; font-size: 16px;&quot;&gt;该棒次为首棒&lt;/span&gt;" style="rounded=1;whiteSpace=wrap;html=1;fontSize=12;glass=0;strokeWidth=1;shadow=0;" vertex="1" parent="WIyWlLk6GJQsqaUBKTNV-1">
          <mxGeometry x="321" y="178" width="120" height="64" as="geometry" />
        </mxCell>
        <mxCell id="afuocbFBIYYZ1BMzaNP9-4" value="No" style="text;html=1;align=center;verticalAlign=middle;resizable=0;points=[];autosize=1;strokeColor=none;fillColor=none;" vertex="1" parent="WIyWlLk6GJQsqaUBKTNV-1">
          <mxGeometry x="279" y="180" width="33" height="26" as="geometry" />
        </mxCell>
        <mxCell id="afuocbFBIYYZ1BMzaNP9-10" style="edgeStyle=orthogonalEdgeStyle;rounded=0;orthogonalLoop=1;jettySize=auto;html=1;exitX=0.5;exitY=1;exitDx=0;exitDy=0;entryX=0.5;entryY=0;entryDx=0;entryDy=0;" edge="1" parent="WIyWlLk6GJQsqaUBKTNV-1" source="afuocbFBIYYZ1BMzaNP9-6" target="afuocbFBIYYZ1BMzaNP9-7">
          <mxGeometry relative="1" as="geometry" />
        </mxCell>
        <mxCell id="afuocbFBIYYZ1BMzaNP9-6" value="&lt;span style=&quot;text-align: left; font-family: 宋体;&quot;&gt;&lt;font style=&quot;font-size: 16px;&quot; face=&quot;宋体&quot;&gt;查询当前剩余料量偏差值100kg内的所有棒次&lt;/font&gt;&lt;/span&gt;" style="rounded=1;whiteSpace=wrap;html=1;fontSize=12;glass=0;strokeWidth=1;shadow=0;" vertex="1" parent="WIyWlLk6GJQsqaUBKTNV-1">
          <mxGeometry x="84" y="314" width="267" height="47" as="geometry" />
        </mxCell>
        <mxCell id="afuocbFBIYYZ1BMzaNP9-7" value="判断是否存在记录" style="rhombus;whiteSpace=wrap;html=1;shadow=0;fontFamily=Helvetica;fontSize=12;align=center;strokeWidth=1;spacing=6;spacingTop=-4;" vertex="1" parent="WIyWlLk6GJQsqaUBKTNV-1">
          <mxGeometry x="169" y="390" width="100" height="80" as="geometry" />
        </mxCell>
        <mxCell id="afuocbFBIYYZ1BMzaNP9-11" value="" style="edgeStyle=orthogonalEdgeStyle;rounded=0;html=1;jettySize=auto;orthogonalLoop=1;fontSize=11;endArrow=block;endFill=0;endSize=8;strokeWidth=1;shadow=0;labelBackgroundColor=none;" edge="1" parent="WIyWlLk6GJQsqaUBKTNV-1" target="afuocbFBIYYZ1BMzaNP9-12">
          <mxGeometry x="-0.4618" y="-4" relative="1" as="geometry">
            <mxPoint as="offset" />
            <mxPoint x="270" y="431.17" as="sourcePoint" />
          </mxGeometry>
        </mxCell>
        <mxCell id="afuocbFBIYYZ1BMzaNP9-14" style="edgeStyle=orthogonalEdgeStyle;rounded=0;orthogonalLoop=1;jettySize=auto;html=1;exitX=1;exitY=0.5;exitDx=0;exitDy=0;" edge="1" parent="WIyWlLk6GJQsqaUBKTNV-1" source="afuocbFBIYYZ1BMzaNP9-12" target="afuocbFBIYYZ1BMzaNP9-13">
          <mxGeometry relative="1" as="geometry" />
        </mxCell>
        <mxCell id="afuocbFBIYYZ1BMzaNP9-12" value="&lt;p style=&quot;margin-left: 21pt; text-indent: -21pt;&quot; class=&quot;MsoNormal&quot;&gt;&lt;span style=&quot;font-family: 宋体; font-size: 12pt;&quot;&gt;&lt;font face=&quot;宋体&quot;&gt;剩余料量与同炉次各棒次剩余料量偏差大于100kg&lt;/font&gt;&lt;/span&gt;&lt;span style=&quot;font-family: 宋体; font-size: 12pt;&quot;&gt;&lt;/span&gt;&lt;/p&gt;" style="rounded=1;whiteSpace=wrap;html=1;fontSize=12;glass=0;strokeWidth=1;shadow=0;" vertex="1" parent="WIyWlLk6GJQsqaUBKTNV-1">
          <mxGeometry x="329" y="396.5" width="198" height="69" as="geometry" />
        </mxCell>
        <mxCell id="afuocbFBIYYZ1BMzaNP9-13" value="&lt;p class=&quot;MsoNormal&quot;&gt;&lt;span style=&quot;font-family: 宋体; font-size: 12pt;&quot;&gt;结合同一炉台上一炉次剩余料量接近的调温成功样本给出当前剩余料量下的引晶功率；&lt;/span&gt;&lt;/p&gt;" style="rounded=1;whiteSpace=wrap;html=1;fontSize=12;glass=0;strokeWidth=1;shadow=0;" vertex="1" parent="WIyWlLk6GJQsqaUBKTNV-1">
          <mxGeometry x="573" y="391" width="309" height="78" as="geometry" />
        </mxCell>
        <mxCell id="afuocbFBIYYZ1BMzaNP9-15" value="No" style="text;html=1;align=center;verticalAlign=middle;resizable=0;points=[];autosize=1;strokeColor=none;fillColor=none;" vertex="1" parent="WIyWlLk6GJQsqaUBKTNV-1">
          <mxGeometry x="271" y="399" width="33" height="26" as="geometry" />
        </mxCell>
        <mxCell id="afuocbFBIYYZ1BMzaNP9-16" value="判断是否存在记录" style="rhombus;whiteSpace=wrap;html=1;shadow=0;fontFamily=Helvetica;fontSize=12;align=center;strokeWidth=1;spacing=6;spacingTop=-4;" vertex="1" parent="WIyWlLk6GJQsqaUBKTNV-1">
          <mxGeometry x="169" y="583" width="100" height="80" as="geometry" />
        </mxCell>
        <mxCell id="afuocbFBIYYZ1BMzaNP9-17" value="" style="edgeStyle=orthogonalEdgeStyle;rounded=0;html=1;jettySize=auto;orthogonalLoop=1;fontSize=11;endArrow=block;endFill=0;endSize=8;strokeWidth=1;shadow=0;labelBackgroundColor=none;" edge="1" parent="WIyWlLk6GJQsqaUBKTNV-1" target="afuocbFBIYYZ1BMzaNP9-19">
          <mxGeometry x="-0.4618" y="-4" relative="1" as="geometry">
            <mxPoint as="offset" />
            <mxPoint x="269" y="623.1700000000001" as="sourcePoint" />
          </mxGeometry>
        </mxCell>
        <mxCell id="afuocbFBIYYZ1BMzaNP9-18" style="edgeStyle=orthogonalEdgeStyle;rounded=0;orthogonalLoop=1;jettySize=auto;html=1;exitX=1;exitY=0.5;exitDx=0;exitDy=0;" edge="1" parent="WIyWlLk6GJQsqaUBKTNV-1" source="afuocbFBIYYZ1BMzaNP9-19" target="afuocbFBIYYZ1BMzaNP9-20">
          <mxGeometry relative="1" as="geometry" />
        </mxCell>
        <mxCell id="afuocbFBIYYZ1BMzaNP9-19" value="&lt;span style=&quot;font-family: 宋体; font-size: 16px;&quot;&gt;挑选放断棒次&lt;/span&gt;" style="rounded=1;whiteSpace=wrap;html=1;fontSize=12;glass=0;strokeWidth=1;shadow=0;" vertex="1" parent="WIyWlLk6GJQsqaUBKTNV-1">
          <mxGeometry x="328" y="591.5" width="194" height="63" as="geometry" />
        </mxCell>
        <mxCell id="afuocbFBIYYZ1BMzaNP9-20" value="&lt;p style=&quot;mso-pagination:widow-orphan;text-align:left;&quot; class=&quot;MsoNormal&quot;&gt;&lt;span style=&quot;font-family: 宋体; font-size: 12pt;&quot;&gt;结合引晶平均拉速来给出&lt;/span&gt;&lt;span style=&quot;font-family: 宋体; font-size: 12pt;&quot;&gt;引晶功率&lt;/span&gt;&lt;span style=&quot;font-family: 宋体; font-size: 12pt;&quot;&gt;&lt;/span&gt;&lt;/p&gt;" style="rounded=1;whiteSpace=wrap;html=1;fontSize=12;glass=0;strokeWidth=1;shadow=0;" vertex="1" parent="WIyWlLk6GJQsqaUBKTNV-1">
          <mxGeometry x="583" y="587" width="256" height="72" as="geometry" />
        </mxCell>
        <mxCell id="afuocbFBIYYZ1BMzaNP9-21" value="No" style="text;html=1;align=center;verticalAlign=middle;resizable=0;points=[];autosize=1;strokeColor=none;fillColor=none;" vertex="1" parent="WIyWlLk6GJQsqaUBKTNV-1">
          <mxGeometry x="270" y="591" width="33" height="26" as="geometry" />
        </mxCell>
        <mxCell id="afuocbFBIYYZ1BMzaNP9-38" style="edgeStyle=orthogonalEdgeStyle;rounded=0;orthogonalLoop=1;jettySize=auto;html=1;exitX=0.75;exitY=1;exitDx=0;exitDy=0;entryX=0.5;entryY=0;entryDx=0;entryDy=0;" edge="1" parent="WIyWlLk6GJQsqaUBKTNV-1" source="afuocbFBIYYZ1BMzaNP9-26" target="afuocbFBIYYZ1BMzaNP9-34">
          <mxGeometry relative="1" as="geometry" />
        </mxCell>
        <mxCell id="afuocbFBIYYZ1BMzaNP9-101" style="edgeStyle=orthogonalEdgeStyle;rounded=0;orthogonalLoop=1;jettySize=auto;html=1;exitX=0.5;exitY=1;exitDx=0;exitDy=0;entryX=0.5;entryY=0;entryDx=0;entryDy=0;" edge="1" parent="WIyWlLk6GJQsqaUBKTNV-1" source="afuocbFBIYYZ1BMzaNP9-26" target="afuocbFBIYYZ1BMzaNP9-32">
          <mxGeometry relative="1" as="geometry" />
        </mxCell>
        <mxCell id="afuocbFBIYYZ1BMzaNP9-103" value="0" style="edgeLabel;html=1;align=center;verticalAlign=middle;resizable=0;points=[];" vertex="1" connectable="0" parent="afuocbFBIYYZ1BMzaNP9-101">
          <mxGeometry x="-0.3468" y="10" relative="1" as="geometry">
            <mxPoint as="offset" />
          </mxGeometry>
        </mxCell>
        <mxCell id="afuocbFBIYYZ1BMzaNP9-102" style="edgeStyle=orthogonalEdgeStyle;rounded=0;orthogonalLoop=1;jettySize=auto;html=1;exitX=0.25;exitY=1;exitDx=0;exitDy=0;entryX=0.5;entryY=0;entryDx=0;entryDy=0;" edge="1" parent="WIyWlLk6GJQsqaUBKTNV-1" source="afuocbFBIYYZ1BMzaNP9-26" target="afuocbFBIYYZ1BMzaNP9-75">
          <mxGeometry relative="1" as="geometry" />
        </mxCell>
        <mxCell id="afuocbFBIYYZ1BMzaNP9-26" value="&lt;p class=&quot;MsoNormal&quot;&gt;&lt;span style=&quot;font-family: 宋体; font-size: 12pt;&quot;&gt;判断是否干预功率标记&lt;/span&gt;&lt;/p&gt;" style="rounded=1;whiteSpace=wrap;html=1;fontSize=12;glass=0;strokeWidth=1;shadow=0;" vertex="1" parent="WIyWlLk6GJQsqaUBKTNV-1">
          <mxGeometry x="39.5" y="714" width="359" height="40" as="geometry" />
        </mxCell>
        <mxCell id="afuocbFBIYYZ1BMzaNP9-27" value="Yes" style="rounded=0;html=1;jettySize=auto;orthogonalLoop=1;fontSize=11;endArrow=block;endFill=0;endSize=8;strokeWidth=1;shadow=0;labelBackgroundColor=none;edgeStyle=orthogonalEdgeStyle;" edge="1" parent="WIyWlLk6GJQsqaUBKTNV-1">
          <mxGeometry x="0.0349" y="15" relative="1" as="geometry">
            <mxPoint x="-1" as="offset" />
            <mxPoint x="219.25" y="663" as="sourcePoint" />
            <mxPoint x="220" y="711" as="targetPoint" />
          </mxGeometry>
        </mxCell>
        <mxCell id="afuocbFBIYYZ1BMzaNP9-50" style="edgeStyle=orthogonalEdgeStyle;rounded=0;orthogonalLoop=1;jettySize=auto;html=1;exitX=0.5;exitY=1;exitDx=0;exitDy=0;entryX=0.5;entryY=0;entryDx=0;entryDy=0;" edge="1" parent="WIyWlLk6GJQsqaUBKTNV-1" source="afuocbFBIYYZ1BMzaNP9-32" target="afuocbFBIYYZ1BMzaNP9-46">
          <mxGeometry relative="1" as="geometry" />
        </mxCell>
        <mxCell id="afuocbFBIYYZ1BMzaNP9-32" value="无人工干预" style="rounded=1;whiteSpace=wrap;html=1;" vertex="1" parent="WIyWlLk6GJQsqaUBKTNV-1">
          <mxGeometry x="159" y="814" width="120" height="60" as="geometry" />
        </mxCell>
        <mxCell id="afuocbFBIYYZ1BMzaNP9-43" style="edgeStyle=orthogonalEdgeStyle;rounded=0;orthogonalLoop=1;jettySize=auto;html=1;exitX=0.5;exitY=1;exitDx=0;exitDy=0;entryX=0.5;entryY=0;entryDx=0;entryDy=0;" edge="1" parent="WIyWlLk6GJQsqaUBKTNV-1" source="afuocbFBIYYZ1BMzaNP9-34" target="afuocbFBIYYZ1BMzaNP9-42">
          <mxGeometry relative="1" as="geometry" />
        </mxCell>
        <mxCell id="afuocbFBIYYZ1BMzaNP9-34" value="人工升功率" style="rounded=1;whiteSpace=wrap;html=1;" vertex="1" parent="WIyWlLk6GJQsqaUBKTNV-1">
          <mxGeometry x="375" y="814" width="120" height="60" as="geometry" />
        </mxCell>
        <mxCell id="afuocbFBIYYZ1BMzaNP9-39" value="1" style="text;html=1;align=center;verticalAlign=middle;resizable=0;points=[];autosize=1;strokeColor=none;fillColor=none;" vertex="1" parent="WIyWlLk6GJQsqaUBKTNV-1">
          <mxGeometry x="99" y="751" width="25" height="26" as="geometry" />
        </mxCell>
        <mxCell id="afuocbFBIYYZ1BMzaNP9-41" value="2" style="text;html=1;align=center;verticalAlign=middle;resizable=0;points=[];autosize=1;strokeColor=none;fillColor=none;" vertex="1" parent="WIyWlLk6GJQsqaUBKTNV-1">
          <mxGeometry x="312" y="750" width="25" height="26" as="geometry" />
        </mxCell>
        <mxCell id="afuocbFBIYYZ1BMzaNP9-42" value="最终状态为冷，引晶功率升0.2kw" style="rounded=1;whiteSpace=wrap;html=1;" vertex="1" parent="WIyWlLk6GJQsqaUBKTNV-1">
          <mxGeometry x="375" y="912" width="120" height="60" as="geometry" />
        </mxCell>
        <mxCell id="afuocbFBIYYZ1BMzaNP9-51" style="edgeStyle=orthogonalEdgeStyle;rounded=0;orthogonalLoop=1;jettySize=auto;html=1;exitX=0.5;exitY=1;exitDx=0;exitDy=0;entryX=0.5;entryY=0;entryDx=0;entryDy=0;" edge="1" parent="WIyWlLk6GJQsqaUBKTNV-1" source="afuocbFBIYYZ1BMzaNP9-46">
          <mxGeometry relative="1" as="geometry">
            <mxPoint x="219" y="1003" as="targetPoint" />
          </mxGeometry>
        </mxCell>
        <mxCell id="afuocbFBIYYZ1BMzaNP9-46" value="根据放肩时长得到状态1，根据引晶平均拉速得到状态2" style="rounded=1;whiteSpace=wrap;html=1;" vertex="1" parent="WIyWlLk6GJQsqaUBKTNV-1">
          <mxGeometry x="163" y="910" width="120" height="60" as="geometry" />
        </mxCell>
        <mxCell id="afuocbFBIYYZ1BMzaNP9-58" style="edgeStyle=orthogonalEdgeStyle;rounded=0;orthogonalLoop=1;jettySize=auto;html=1;exitX=0.5;exitY=1;exitDx=0;exitDy=0;" edge="1" parent="WIyWlLk6GJQsqaUBKTNV-1" source="afuocbFBIYYZ1BMzaNP9-54" target="afuocbFBIYYZ1BMzaNP9-56">
          <mxGeometry relative="1" as="geometry" />
        </mxCell>
        <mxCell id="afuocbFBIYYZ1BMzaNP9-62" value="正常" style="edgeLabel;html=1;align=center;verticalAlign=middle;resizable=0;points=[];" vertex="1" connectable="0" parent="afuocbFBIYYZ1BMzaNP9-58">
          <mxGeometry x="0.4167" y="8" relative="1" as="geometry">
            <mxPoint as="offset" />
          </mxGeometry>
        </mxCell>
        <mxCell id="afuocbFBIYYZ1BMzaNP9-59" style="edgeStyle=orthogonalEdgeStyle;rounded=0;orthogonalLoop=1;jettySize=auto;html=1;exitX=0.25;exitY=1;exitDx=0;exitDy=0;entryX=0.5;entryY=0;entryDx=0;entryDy=0;" edge="1" parent="WIyWlLk6GJQsqaUBKTNV-1" source="afuocbFBIYYZ1BMzaNP9-54" target="afuocbFBIYYZ1BMzaNP9-55">
          <mxGeometry relative="1" as="geometry" />
        </mxCell>
        <mxCell id="afuocbFBIYYZ1BMzaNP9-60" style="edgeStyle=orthogonalEdgeStyle;rounded=0;orthogonalLoop=1;jettySize=auto;html=1;exitX=0.75;exitY=1;exitDx=0;exitDy=0;entryX=0.5;entryY=0;entryDx=0;entryDy=0;" edge="1" parent="WIyWlLk6GJQsqaUBKTNV-1" source="afuocbFBIYYZ1BMzaNP9-54" target="afuocbFBIYYZ1BMzaNP9-57">
          <mxGeometry relative="1" as="geometry" />
        </mxCell>
        <mxCell id="afuocbFBIYYZ1BMzaNP9-54" value="判断状态1" style="rounded=1;whiteSpace=wrap;html=1;" vertex="1" parent="WIyWlLk6GJQsqaUBKTNV-1">
          <mxGeometry x="159" y="1003" width="120" height="60" as="geometry" />
        </mxCell>
        <mxCell id="afuocbFBIYYZ1BMzaNP9-55" value="最终状态为热，根据引晶平均拉速降引晶功率" style="rounded=1;whiteSpace=wrap;html=1;" vertex="1" parent="WIyWlLk6GJQsqaUBKTNV-1">
          <mxGeometry x="-26" y="1119" width="120" height="60" as="geometry" />
        </mxCell>
        <mxCell id="afuocbFBIYYZ1BMzaNP9-67" style="edgeStyle=orthogonalEdgeStyle;rounded=0;orthogonalLoop=1;jettySize=auto;html=1;exitX=0.5;exitY=1;exitDx=0;exitDy=0;entryX=0.5;entryY=0;entryDx=0;entryDy=0;" edge="1" parent="WIyWlLk6GJQsqaUBKTNV-1" source="afuocbFBIYYZ1BMzaNP9-56" target="afuocbFBIYYZ1BMzaNP9-64">
          <mxGeometry relative="1" as="geometry" />
        </mxCell>
        <mxCell id="afuocbFBIYYZ1BMzaNP9-71" value="正常" style="edgeLabel;html=1;align=center;verticalAlign=middle;resizable=0;points=[];" vertex="1" connectable="0" parent="afuocbFBIYYZ1BMzaNP9-67">
          <mxGeometry x="0.4035" y="8" relative="1" as="geometry">
            <mxPoint as="offset" />
          </mxGeometry>
        </mxCell>
        <mxCell id="afuocbFBIYYZ1BMzaNP9-68" style="edgeStyle=orthogonalEdgeStyle;rounded=0;orthogonalLoop=1;jettySize=auto;html=1;exitX=0.25;exitY=1;exitDx=0;exitDy=0;entryX=0.5;entryY=0;entryDx=0;entryDy=0;" edge="1" parent="WIyWlLk6GJQsqaUBKTNV-1" source="afuocbFBIYYZ1BMzaNP9-56" target="afuocbFBIYYZ1BMzaNP9-65">
          <mxGeometry relative="1" as="geometry" />
        </mxCell>
        <mxCell id="afuocbFBIYYZ1BMzaNP9-69" style="edgeStyle=orthogonalEdgeStyle;rounded=0;orthogonalLoop=1;jettySize=auto;html=1;exitX=0.75;exitY=1;exitDx=0;exitDy=0;entryX=0.5;entryY=0;entryDx=0;entryDy=0;" edge="1" parent="WIyWlLk6GJQsqaUBKTNV-1" source="afuocbFBIYYZ1BMzaNP9-56" target="afuocbFBIYYZ1BMzaNP9-66">
          <mxGeometry relative="1" as="geometry" />
        </mxCell>
        <mxCell id="afuocbFBIYYZ1BMzaNP9-56" value="判断状态2" style="rounded=1;whiteSpace=wrap;html=1;" vertex="1" parent="WIyWlLk6GJQsqaUBKTNV-1">
          <mxGeometry x="159" y="1122" width="120" height="60" as="geometry" />
        </mxCell>
        <mxCell id="afuocbFBIYYZ1BMzaNP9-57" value="最终状态为冷，根据引晶平均拉速升引晶功率" style="rounded=1;whiteSpace=wrap;html=1;" vertex="1" parent="WIyWlLk6GJQsqaUBKTNV-1">
          <mxGeometry x="344" y="1122" width="120" height="60" as="geometry" />
        </mxCell>
        <mxCell id="afuocbFBIYYZ1BMzaNP9-61" value="热" style="text;html=1;align=center;verticalAlign=middle;resizable=0;points=[];autosize=1;strokeColor=none;fillColor=none;" vertex="1" parent="WIyWlLk6GJQsqaUBKTNV-1">
          <mxGeometry x="84" y="1062" width="30" height="26" as="geometry" />
        </mxCell>
        <mxCell id="afuocbFBIYYZ1BMzaNP9-63" value="冷" style="text;html=1;align=center;verticalAlign=middle;resizable=0;points=[];autosize=1;strokeColor=none;fillColor=none;" vertex="1" parent="WIyWlLk6GJQsqaUBKTNV-1">
          <mxGeometry x="258" y="1065" width="30" height="26" as="geometry" />
        </mxCell>
        <mxCell id="afuocbFBIYYZ1BMzaNP9-64" value="最终状态为正常，引晶功率不变" style="rounded=1;whiteSpace=wrap;html=1;" vertex="1" parent="WIyWlLk6GJQsqaUBKTNV-1">
          <mxGeometry x="159" y="1258" width="120" height="60" as="geometry" />
        </mxCell>
        <mxCell id="afuocbFBIYYZ1BMzaNP9-65" value="最终状态为热，根据引晶平均拉速降引晶功率" style="rounded=1;whiteSpace=wrap;html=1;" vertex="1" parent="WIyWlLk6GJQsqaUBKTNV-1">
          <mxGeometry x="-16" y="1258" width="120" height="60" as="geometry" />
        </mxCell>
        <mxCell id="afuocbFBIYYZ1BMzaNP9-66" value="最终状态为冷，根据引晶平均拉速升引晶功率" style="rounded=1;whiteSpace=wrap;html=1;" vertex="1" parent="WIyWlLk6GJQsqaUBKTNV-1">
          <mxGeometry x="344" y="1258" width="120" height="60" as="geometry" />
        </mxCell>
        <mxCell id="afuocbFBIYYZ1BMzaNP9-70" value="热" style="text;html=1;align=center;verticalAlign=middle;resizable=0;points=[];autosize=1;strokeColor=none;fillColor=none;" vertex="1" parent="WIyWlLk6GJQsqaUBKTNV-1">
          <mxGeometry x="96" y="1188" width="30" height="26" as="geometry" />
        </mxCell>
        <mxCell id="afuocbFBIYYZ1BMzaNP9-72" value="冷" style="text;html=1;align=center;verticalAlign=middle;resizable=0;points=[];autosize=1;strokeColor=none;fillColor=none;" vertex="1" parent="WIyWlLk6GJQsqaUBKTNV-1">
          <mxGeometry x="263" y="1189" width="30" height="26" as="geometry" />
        </mxCell>
        <mxCell id="afuocbFBIYYZ1BMzaNP9-75" value="人工降功率" style="rounded=1;whiteSpace=wrap;html=1;" vertex="1" parent="WIyWlLk6GJQsqaUBKTNV-1">
          <mxGeometry x="-83" y="821" width="120" height="60" as="geometry" />
        </mxCell>
        <mxCell id="afuocbFBIYYZ1BMzaNP9-76" style="edgeStyle=orthogonalEdgeStyle;rounded=0;orthogonalLoop=1;jettySize=auto;html=1;exitX=0.5;exitY=1;exitDx=0;exitDy=0;entryX=0.5;entryY=0;entryDx=0;entryDy=0;" edge="1" parent="WIyWlLk6GJQsqaUBKTNV-1" target="afuocbFBIYYZ1BMzaNP9-77">
          <mxGeometry relative="1" as="geometry">
            <mxPoint x="-22" y="881" as="sourcePoint" />
          </mxGeometry>
        </mxCell>
        <mxCell id="afuocbFBIYYZ1BMzaNP9-77" value="最终状态为热，引晶功率降0.2kw" style="rounded=1;whiteSpace=wrap;html=1;" vertex="1" parent="WIyWlLk6GJQsqaUBKTNV-1">
          <mxGeometry x="-82" y="919" width="120" height="60" as="geometry" />
        </mxCell>
      </root>
    </mxGraphModel>
  </diagram>
</mxfile>
